<svg width="500" height="500" viewBox="0 0 500 500" fill="none" xmlns="http://www.w3.org/2000/svg">
<rect width="500" height="500" fill="black"/>
<path d="M180.769 249.923C226.923 188.385 273.077 188.385 319.231 249.923M180.769 249.923C226.923 311.462 273.077 311.462 319.231 249.923M180.769 249.923L165.385 234.538C221.795 173 275.641 173 326.923 234.538L350 265.308M319.231 249.923L334.615 265.308C278.205 326.846 224.359 326.846 173.077 265.308L150 234.538M150 234.538V265.308C216.667 347.359 283.333 347.359 350 265.308M150 234.538C216.667 152.487 283.333 152.487 350 234.538V265.308" stroke="white" stroke-width="5" stroke-linecap="round" stroke-linejoin="round"/>
</svg>
